<svg width="580" height="409" viewBox="0 0 580 409" fill="none" xmlns="http://www.w3.org/2000/svg">
<g clip-path="url(#clip0_998_1364)">
<path d="M16.8857 389.462C24.8433 389.462 26.0725 388.233 26.0725 381.117V350.904H13.5862C4.72281 350.904 3.81706 352.522 2.45845 356.339L1.94088 357.762H-0.0646973L0.841047 348.122H59.0675L59.9732 357.762H57.9676L57.4501 356.339C56.0915 352.522 55.121 350.904 46.3224 350.904H33.836V381.117C33.836 388.298 35.0652 389.462 43.0229 389.462V390.95H16.8857V389.462Z" fill="#DCB760"/>
<path d="M93.2917 389.462C101.249 389.462 102.414 388.233 102.414 381.117V357.891C102.414 350.71 101.249 349.61 93.2917 349.61V348.122H137.091L137.997 357.568H135.991L135.474 356.144C134.115 352.392 133.144 350.775 124.346 350.775H110.113V366.948H114.9C124.475 366.948 126.028 366.107 126.028 360.091H128.033V376.459H126.028C126.028 370.442 124.475 369.601 114.9 369.601H110.113V380.017C110.113 387.198 111.277 388.298 119.235 388.298H127.516C136.379 388.298 137.414 386.68 138.644 382.863L139.161 381.44H141.167L140.39 390.95H93.2917V389.462Z" fill="#DCB760"/>
<path d="M204.31 397.808C195.123 397.808 196.158 402.272 192.794 402.595C190.983 402.854 189.559 401.819 189.559 400.331C189.559 398.196 195.9 393.862 204.569 391.921C188.912 389.915 177.785 380.534 177.785 369.601C177.785 357.18 192.212 346.958 209.745 346.958C227.277 346.958 241.834 357.18 241.834 369.601C241.834 382.022 228.83 390.821 212.979 392.115C209.227 392.438 203.857 393.667 200.17 396.191C218.931 393.409 224.56 403.63 237.434 403.63C246.168 403.63 250.891 401.431 254.061 396.708L255.614 397.29C253.285 402.272 246.945 409.129 235.623 409.129C223.525 409.129 213.626 397.937 204.31 397.937V397.808ZM232.582 369.536C232.582 360.673 226.242 349.675 209.745 349.675C193.247 349.675 186.777 360.673 186.777 369.536C186.777 378.399 193.118 389.333 209.745 389.333C226.371 389.333 232.582 378.399 232.582 369.536Z" fill="#DCB760"/>
<path d="M284.857 375.035V357.891C284.857 350.71 283.692 349.61 275.734 349.61V348.122H301.678V349.61C293.72 349.61 292.555 350.775 292.555 357.891V375.423C292.555 384.675 299.737 388.945 309.376 388.945C319.016 388.945 327.038 384.675 327.038 375.423V357.891C327.038 350.71 325.809 349.61 317.852 349.61V348.122H340.301V349.61C332.344 349.61 331.114 350.775 331.114 357.891V375.035C331.114 386.227 320.763 392.179 307.953 392.179C295.143 392.179 284.921 386.292 284.921 375.035H284.792H284.857Z" fill="#DCB760"/>
<path d="M374.784 389.462C382.742 389.462 383.906 388.233 383.906 381.117V357.891C383.906 350.71 382.742 349.61 374.784 349.61V348.122H400.727V349.61C392.77 349.61 391.605 350.775 391.605 357.891V381.117C391.605 388.298 392.77 389.462 400.727 389.462V390.95H374.784V389.462Z" fill="#DCB760"/>
<path d="M436.763 389.462C444.721 389.462 445.885 388.233 445.885 381.117V357.891C445.885 350.71 444.721 349.61 436.763 349.61V348.122H462.706V349.61C454.748 349.61 453.584 350.775 453.584 357.891V380.017C453.584 387.198 454.748 388.298 462.706 388.298H474.222C482.956 388.298 483.991 386.68 485.22 382.863L485.738 381.44H487.743L486.967 390.95H436.763V389.462Z" fill="#DCB760"/>
<path d="M513.557 389.462C521.644 389.462 522.097 388.233 525.073 383.252L546.164 346.893H547.393L568.613 383.252C571.589 388.233 572.042 389.462 580 389.462V390.95H553.41V389.462C561.368 389.462 563.179 387.974 560.915 384.028L556.321 376.07H533.095L528.502 384.028C526.173 387.91 527.984 389.462 536.007 389.462V390.95H513.557V389.462ZM554.704 373.483L544.611 356.274L534.648 373.483H554.704Z" fill="#DCB760"/>
<path d="M546.358 284.721C549.399 284.721 552.051 285.821 554.251 288.021C556.451 290.221 557.551 292.873 557.551 295.978C557.551 299.084 556.451 301.736 554.251 303.936C552.051 306.135 549.464 307.235 546.358 307.235C543.253 307.235 540.6 306.135 538.401 303.936C536.201 301.736 535.101 299.084 535.101 295.978C535.101 292.873 536.201 290.221 538.401 288.021C540.6 285.821 543.253 284.721 546.358 284.721ZM546.294 305.359C548.881 305.359 551.016 304.453 552.892 302.577C554.704 300.766 555.674 298.501 555.674 295.978C555.674 293.455 554.769 291.191 552.957 289.379C551.146 287.568 548.946 286.662 546.358 286.662C543.77 286.662 541.571 287.568 539.759 289.379C537.948 291.191 537.042 293.455 537.042 295.978C537.042 298.501 537.948 300.766 539.759 302.577C541.571 304.389 543.77 305.359 546.358 305.359H546.294ZM551.534 302.189H549.14C547.652 299.472 546.682 297.919 546.229 297.596C545.776 297.208 545.194 297.078 544.482 297.078H543.317V302.189H541.377V290.091H545.517C546.746 290.091 547.717 290.221 548.428 290.35C549.14 290.544 549.658 290.932 550.046 291.514C550.499 292.097 550.693 292.744 550.693 293.391C550.693 294.232 550.369 294.943 549.787 295.655C549.205 296.367 548.364 296.69 547.264 296.819C547.976 297.078 548.946 298.049 550.046 299.925L551.534 302.254V302.189ZM543.317 295.396H545.711C546.811 295.396 547.587 295.202 547.976 294.879C548.364 294.555 548.623 294.102 548.623 293.52C548.623 292.938 548.428 292.485 547.976 292.161C547.523 291.838 546.746 291.644 545.517 291.644H543.317V295.267V295.396Z" fill="#DCB760"/>
<path d="M241.252 187.291C269.783 187.291 289.515 201.071 289.515 228.114C289.515 245.387 280.716 256.903 267.648 262.725L291.714 307.17H260.013L240.734 267.707H227.471V307.17H197.776V187.227H241.252V187.291ZM227.536 212.91V243.382H242.804C251.926 243.382 258.914 239.047 258.914 228.049C258.914 217.051 251.797 212.91 242.675 212.91H227.601H227.536Z" fill="#DCB760"/>
<path d="M371.032 212.91V307.17H340.495V212.91H308.665V187.227H402.927V212.91H371.096H371.032Z" fill="#DCB760"/>
<path d="M467.3 187.291L398.333 307.235H429.388L439.804 289.121H494.795L505.211 307.235H536.265L467.3 187.291ZM451.449 268.871L467.3 241.311L483.15 268.871H451.384H451.449Z" fill="#DCB760"/>
<path d="M112.765 187.291L43.7992 307.235H74.8533L85.2694 289.121H140.261L150.677 307.235H181.731L112.765 187.291ZM96.9146 268.871L112.765 241.311L128.616 268.871H96.85H96.9146Z" fill="#DCB760"/>
<path d="M284.469 34.8058L285.18 33.9647C283.045 30.73 282.463 24.3252 283.11 21.5433C285.245 12.9389 291.132 12.4214 293.785 13.4565C297.149 14.8151 302.066 17.5323 301.484 32.9296C300.772 48.8445 287.639 68.447 286.215 100.924C285.633 113.863 287.445 127.319 288.609 134.242C289.062 134.242 289.515 134.112 289.903 134.112C290.421 134.112 290.873 134.242 291.326 134.306C290.938 128.29 290.809 120.332 291.326 109.852C292.361 85.9793 313.711 56.0256 314.746 32.1533C315.523 13.3918 305.43 0.517553 295.402 0.0646896C283.627 -0.452868 276.123 9.7042 276.64 18.8909C276.899 23.4842 279.746 31.4416 284.404 34.8704L284.469 34.8058Z" fill="#DCB760"/>
<path d="M279.293 74.2695C279.293 74.2695 281.881 62.301 273.147 47.6153C266.871 37.0054 263.442 24.6487 266.16 12.4214C266.742 9.89829 267.324 8.34562 268.553 5.43436C268.553 5.43436 252.832 19.3437 260.337 41.4046C262.601 48.1329 268.812 55.9609 273.729 62.6245C276.382 66.2474 278.581 71.423 279.293 74.3342V74.2695Z" fill="#DCB760"/>
<path d="M295.273 128.872C295.273 131.136 295.532 133.271 295.79 135.406C296.761 135.859 297.666 136.441 298.443 137.023C298.508 133.336 298.896 130.942 298.896 129.389C298.96 113.41 307.241 102.088 315.911 90.702C336.031 64.63 341.272 48.7151 340.625 39.6579C340.172 33.3825 338.101 27.4306 335.384 25.0369L334.673 25.8779C334.931 27.3659 335.384 29.3067 335.384 33.3178C335.384 39.0109 332.99 48.1329 316.493 68.5117C305.042 82.6799 295.402 104.223 295.273 128.742V128.872Z" fill="#DCB760"/>
<path d="M353.499 59.2604C360.745 61.5894 361.716 66.118 361.716 68.447C361.716 73.0403 361.069 78.7335 346.965 84.8795C336.937 89.4081 323.415 98.336 316.364 107.458C310.088 115.221 304.589 124.408 300.513 139.029C301.225 139.805 301.807 140.582 302.389 141.487C304.007 137.735 307.371 129.972 310.864 126.155C319.534 116.58 328.203 109.787 345.542 101.959C362.427 94.4543 369.803 84.4913 369.867 73.105C369.867 65.7298 365.856 60.813 358.093 55.9609C353.564 53.1144 351.752 51.3676 351.752 47.8741C351.752 46.7743 352.011 45.351 352.658 44.51L351.946 43.6042C349.164 44.4453 344.442 47.2272 344.377 51.8205C344.377 55.2493 347.094 57.2548 353.499 59.3251V59.2604Z" fill="#DCB760"/>
<path d="M274.893 150.674C274.893 150.027 275.023 149.38 275.088 148.798C272.112 145.11 267.389 139.676 260.466 132.559C250.956 122.791 241.834 122.144 228.636 122.014C222.231 122.014 214.985 121.303 211.427 120.138C205.475 118.133 203.275 113.345 201.205 109.787L200.493 110.369C204.051 124.667 211.297 138.964 228.118 139.094C234.523 139.158 238.599 136.894 247.721 137.023C264.348 137.153 272.435 149.315 275.023 152.744C275.023 152.033 274.829 151.386 274.829 150.674H274.893Z" fill="#DCB760"/>
<path d="M378.86 109.593C376.79 113.022 374.525 117.809 368.573 119.75C364.886 120.914 357.64 121.432 351.299 121.367C338.101 121.238 328.979 121.755 319.34 131.33C312.352 138.382 307.565 143.816 304.524 147.375C304.718 148.474 304.848 149.639 304.848 150.868C307.759 147.051 315.911 135.859 332.02 135.988C341.077 136.053 345.218 138.382 351.558 138.447C368.379 138.576 375.755 124.343 379.442 110.175L378.731 109.528L378.86 109.593Z" fill="#DCB760"/>
<path d="M231.094 105.646C248.886 112.31 258.008 118.585 267.324 127.643C271.141 131.266 275.152 139.029 276.964 142.587C277.481 141.681 277.999 140.776 278.581 139.999C273.535 125.572 267.389 116.645 260.531 109.269C252.832 100.665 238.793 92.5134 228.506 88.6318C213.95 83.3915 211.944 76.2751 212.656 71.4877C212.979 69.288 214.273 65.8592 220.29 63.5302C226.566 61.2012 229.089 58.9369 228.895 55.5081C228.506 50.9794 223.59 48.4563 220.743 47.7447L220.096 48.6504C220.808 49.4914 221.196 50.85 221.26 51.9498C221.519 55.314 219.772 57.1901 215.503 60.3602C208.127 65.7298 204.44 70.9054 204.957 78.2159C205.798 89.5375 213.756 98.9829 231.159 105.582L231.094 105.646Z" fill="#DCB760"/>
<path d="M280.91 130.942C280.91 132.236 281.169 134.242 281.298 137.153C282.204 136.441 283.175 135.794 284.274 135.341C284.468 133.724 284.598 132.171 284.598 130.425C284.727 105.905 275.282 84.1031 263.96 69.8056C247.721 49.168 245.327 39.9166 244.939 33.9C244.616 29.8889 245.845 24.584 245.845 24.584C243.128 26.913 240.022 34.3529 239.44 39.3991C238.405 48.9092 240.475 63.789 264.348 91.9959C273.6 102.929 281.04 114.898 280.975 130.877L280.91 130.942Z" fill="#DCB760"/>
<path d="M296.631 150.803C296.631 154.944 293.591 158.243 289.838 158.243C286.086 158.243 283.11 154.879 283.11 150.739C283.11 146.598 286.151 143.299 289.903 143.299C293.655 143.299 296.631 146.728 296.631 150.868V150.803Z" fill="#DCB760"/>
</g>
<defs>
<clipPath id="clip0_998_1364">
<rect width="580" height="409" fill="white"/>
</clipPath>
</defs>
</svg>
